<svg xmlns="http://www.w3.org/2000/svg" viewBox="0 0 13.206 8.4"><style>.st0{fill-rule:evenodd;clip-rule:evenodd;fill:#FFFFFF;}</style><path class="st0" d="M2.924 4.925v1.447c0 .863-.632 1.18-1.42 1.18S0 7.237 0 6.373V2.01C0 1.147.716.83 1.504.83s1.42.317 1.42 1.18v1.205H1.69V2.22c0-.182-.06-.427-.258-.427-.2 0-.226.244-.226.427v3.944c0 .182.028.427.226.427.2 0 .257-.244.257-.426v-1.24h1.234zm4.033 2.517V.958L8.335.956c.788 0 1.504.318 1.504 1.18v4.11c0 .862-.717 1.18-1.505 1.18l-1.378.016zm1.67-1.37V2.31c0-.18-.03-.427-.228-.427h-.227V6.5H8.4c.198 0 .226-.246.226-.427zm1.69 1.37V.958L11.79.956c.79 0 1.415.318 1.415 1.18v4.11c0 .862-.717 1.195-1.504 1.195l-1.384.002zm1.675-1.37V2.31c0-.18-.028-.427-.227-.427h-.227V6.5h.227c.2 0 .227-.246.227-.427zM1.907 8.4c1.29-.745 2.62-2.09 2.71-3.064.174-1.903-1.055-2.253-.95-3.438C3.743.994 4.393.258 5.024 0h.613c-.693.322-1.282.973-1.282 1.67 0 1.223 2.18 1.47 1.966 3.94-.09 1.062-.97 2.39-1.3 2.79H1.908z"/></svg>